<?xml version="1.0" encoding="UTF-8"?>
<svg xmlns="http://www.w3.org/2000/svg" xmlns:xlink="http://www.w3.org/1999/xlink" width="133.9868mm" height="41.4737mm" viewBox="0 0 379.8052 117.5633">
  <defs>
    <style>.ba999e6a-fa5b-41a9-8184-2b3df61f3259{fill:none;}.e1436b84-3fee-4a09-8a31-c4ce65242500{clip-path:url(#ae3acb38-e9c3-4504-9674-765b49565a04);}.e9cbab8f-0c26-497c-a40f-0e139034fa1b{fill:#fcdd0b;}.a29d644e-2052-480d-b4c3-492abe42256a{fill:#e52629;}.a3dde871-3f0e-4f4d-a7aa-07fe84086f57{fill:#010101;stroke:#231f20;stroke-miterlimit:21.4811;stroke-width:0.1984px;}</style>
    <clipPath id="ae3acb38-e9c3-4504-9674-765b49565a04">
      <polygon id="b59bbf50-e0e8-40f2-a864-689ad3d790bd" data-name="SVGID" class="ba999e6a-fa5b-41a9-8184-2b3df61f3259" points="53.486 107.105 371.027 107.105 371.027 100.56 53.486 100.56 53.486 107.105 53.486 107.105"></polygon>
    </clipPath>
  </defs>
  <g id="ae1dd6e3-3db3-40d1-aedf-8a34b5376f8c" data-name="Ebene 2">
    <g id="fcf51bfc-14de-42fa-adc0-c627d10dd702" data-name="Ebene 3">
      <g class="e1436b84-3fee-4a09-8a31-c4ce65242500">
        <g id="b06a3b05-fd3d-4022-aa3f-d27d8c665766" data-name="g438">
          <path id="aee66ae8-69c8-4933-a7b1-aa189273e6d3" data-name="path444" class="e9cbab8f-0c26-497c-a40f-0e139034fa1b" d="M241.633,91.4207v23.4481H377.6958V91.4207Z"></path>
          <path id="a4b1148d-fd39-4cf4-994a-5da8e800456c" data-name="path446" class="a29d644e-2052-480d-b4c3-492abe42256a" d="M153.9261,91.4207v26.1426h110.89V91.4207Z"></path>
          <path id="a3bdea0b-1972-45de-a68a-a48f878d3c8a" data-name="path448" d="M40.8447,91.4207v26.1426H157.1782V91.4207Z"></path>
        </g>
      </g>
      <path d="M19.322,99.1423q3.5486,2.2383,7.1938,4.2373c.4979.7624,1.0151,1.5153,1.5308,2.269q1.0109.3277,2.0935.5874c-.3446-.49-.6961-.976-1.033-1.47,1.3648.7117,2.7414,1.3929,4.1243,2.0562.3769.0545.7518.11,1.1429.1554,1.0581.1,2.6444.1267,2.6444.1267v-.33q-1.7175-2.2536-3.3281-4.5747,1.6548.8144,3.3281,1.5764v-1.5379c-1.6489-.7652-3.2907-1.5533-4.9121-2.3891q-2.1291-3.2417-4.041-6.6035,3.3633,1.97,6.8272,3.7256,1.0344,1.6074,2.1259,3.1866V96.4672c-.3875-.19-.7794-.37-1.165-.5642q-2.0457-3.2007-3.8579-6.497c1.6568.9409,3.3343,1.8262,5.0229,2.6828V90.5447c-2.1126-1.0875-4.2078-2.2423-6.268-3.462q-1.6788-3.2211-3.145-6.5254,2.9963,1.9967,6.0981,3.8,1.5567,3.057,3.3149,6.0335V87.5929c-.3686-.6581-.7423-1.3139-1.0966-1.978.3628.2.7318.3883,1.0966.5848v-1.575c-.7581-.4149-1.5164-.83-2.2656-1.2617q-1.5849-3.1407-2.96-6.3613c1.719,1.1078,3.463,2.1558,5.226,3.16V75.97c-.3737-.8467-.743-1.6954-1.0942-2.5519.3618.2266.73.44,1.0942.6625V72.4545c-.6588-.4092-1.3185-.8167-1.9692-1.2409q-1.1748-3.0615-2.16-6.1983c1.3567.9836,2.737,1.9178,4.1289,2.826V66.188q-2.4338-1.6186-4.7973-3.39-.8922-3.0761-1.5977-6.2148,2.4309,2.0376,4.9688,3.9014c.4344,1.5727.9176,3.1288,1.4262,4.6753V59.8049c-.0719-.052-.1459-.1007-.2177-.1528Q36,56.6961,35.3776,53.6833c.5413.4357,1.0921.8546,1.6411,1.2764V53.2116c-.6911-.544-1.379-1.0942-2.0576-1.6611q-.5449-2.9561-.9155-5.96c.9726.9023,1.9678,1.77,2.9731,2.6216V46.363c-.74-.645-1.4873-1.28-2.2089-1.9531q-.5069-.4718-1.0044-.9522-.3025-2.9589-.4341-5.956c1.17,1.2537,2.3907,2.471,3.6474,3.66V39.24c-1.2851-1.2555-2.53-2.543-3.7187-3.8685q-.07-2.9971.0342-5.97,1.7472,2.1991,3.6845,4.2891V31.628q-1.8855-2.1252-3.5879-4.3588.1664-2.981.5054-5.9316c.9683,1.45,2.0031,2.8626,3.0825,4.2451V23.2882c-.9854-1.332-1.9322-2.6876-2.8154-4.0805q.4124-3.0234,1.0044-6.001c.569,1.0581,1.18,2.1,1.811,3.1316v-2.72q-.71-1.2624-1.3618-2.5485c.4018-1.8152.86-3.6147,1.3618-5.4006v-.707c-.4166,0-.8332.0247-1.25.0476-.3826,1.3478-.7479,2.7011-1.0745,4.0649-.572-1.24-1.0877-2.5-1.577-3.7685-.4648.0787-.9291.1627-1.392.2685.7325,1.9211,1.555,3.8183,2.4734,5.6758q-.6555,3.0277-1.1274,6.1084-1.6019-2.7114-2.9453-5.5527.6318-3.1218,1.4532-6.1934c-.514.1207-1.0269.2528-1.5376.4062-.3131,1.2121-.61,2.4291-.88,3.6534-.4177-.9674-.809-1.9466-1.1819-2.9332-.4243.1652-.8486.3308-1.2694.5178.6045,1.5968,1.2487,3.1775,1.9679,4.7249q-.6255,3.1613-1.0625,6.3711-1.5894-2.87-2.91-5.8476c.297-1.5956.642-3.185,1.0093-4.77q-.8111.3963-1.61.8456c-.1212.5491-.2517,1.0968-.3646,1.6471-.1588-.3926-.2948-.7921-.4467-1.1869-.4037.2419-.8037.4977-1.2021.7593.3747.9635.76,1.9237,1.1752,2.8739-.4146,2.2744-.7593,4.5645-1.0332,6.8555q-1.6385-3.0894-2.9961-6.31c.09-.524.1971-1.0453.2939-1.5683q-.9189.7228-1.8119,1.5141c.03.0728.0552.1475.0854.22-.397,2.3711-.7222,4.7578-.9746,7.1436-.7411-1.4661-1.4221-2.96-2.0756-4.4653q-.5165.5547-1.02,1.1331c.8807,1.989,1.8245,3.9512,2.8551,5.8683q-.295,3.5186-.3818,7.042-1.9423-3.0937-3.623-6.3291c.1482-1.9933.358-3.9732.6024-5.9466-.5535.6582-1.0988,1.33-1.6266,2.03-.0542.5132-.119,1.0242-.1668,1.5387-.1275-.2645-.2406-.5352-.3654-.8009-.3092.4256-.6168.8531-.9161,1.2927.35.7274.6931,1.4579,1.0623,2.1761q-.2622,3.6811-.3062,7.3965c-1.1234-1.8621-2.1691-3.7643-3.1595-5.6939q-1.0566,1.8743-1.9941,3.8725c-.0292,1.1212-.05,2.2424-.05,3.3644-.2788-.4765-.5363-.9644-.807-1.4453-.23.5417-.4452,1.0947-.66,1.6481.49.8492.98,1.6988,1.4964,2.5345q.08,3.8041.3818,7.5918c-1.2339-1.7425-2.3967-3.5259-3.5184-5.3331-.1781.6021-.3429,1.2122-.5039,1.8249q2.0211,3.1687,4.2659,6.2055.378,3.75.9742,7.4785Q4.7681,50.49,2.4953,47.3376c-.2508-2.342-.4322-4.7-.56-7.07A62.5882,62.5882,0,0,0,.6076,47.0466c.1871.266.36.539.55.8037q.4314,3.9345,1.0874,7.8115C1.4963,54.7432.7781,53.8049.06,52.8666c-.034.7262-.0508,1.4578-.06,2.1919.8948,1.1346,1.8027,2.2609,2.7419,3.366q.74,3.8775,1.7016,7.6836Q2.272,63.8275.2363,61.45l.0131.2244c.0673.73.1526,1.4523.2438,2.1725q2.2623,2.5486,4.671,4.992Q6.22,72.6692,7.5,76.4265q-.69-.6255-1.3731-1.2627-2.2282-2.0778-4.33-4.2394c.2184.902.4512,1.795.7049,2.6746q1.32,1.303,2.6808,2.5784,1.6143,1.5045,3.271,2.9493,1.3864,3.7968,3,7.4961Q8.39,84.2319,5.4388,81.6279l.1008.22.5631,1.2209c.26.5648.5361,1.1133.8126,1.661q2.819,2.3649,5.7328,4.5514,1.317,2.8461,2.7681,5.6279-2.0382-1.4042-4.0374-2.8917l1.7,2.2589.563.7605.7265.76c.0294.0332.0581.0633.0875.0963.7883.5449,1.5681,1.108,2.3648,1.6347.3674.6671.7635,1.3193,1.1426,1.98a32.9988,32.9988,0,0,0,3.1544,2.6156C20.5109,101.1345,19.9014,100.1464,19.322,99.1423Zm15.37,6.8467c-2.4263-1.1426-4.836-2.3653-7.2066-3.6592Q25.798,99.7312,24.25,97.0661q3.4028,2.0332,6.9,3.8486Q32.8526,103.49,34.6921,105.989Zm-5.0816-7.4619q-3.4284-1.862-6.7666-3.9415-1.902-3.45-3.5757-6.9882,3.1554,2.2119,6.418,4.2187Q27.5378,95.2292,29.6105,98.5271ZM25.8713,64.5036q-2.65-2.1636-5.1831-4.5107-.7932-3.3663-1.3863-6.77,1.8488,1.9088,3.8062,3.7344.54.5025,1.085.9971Q24.9328,61.2478,25.8713,64.5036Zm-1.6582-13.791Q25.43,51.93,26.694,53.1081q1.0826,1.0093,2.19,1.9824.6576,3.1773,1.5014,6.292-2.5188-1.9892-4.937-4.16Q24.7337,53.9821,24.2131,50.7126ZM21.2844,62.4079q2.5847,2.3087,5.2885,4.4317,1.02,3.268,2.2427,6.4873-2.8381-1.9966-5.5771-4.19Q22.1588,65.7967,21.2844,62.4079ZM24.4831,76.696Q21.49,74.5222,18.62,72.1481q-1.1608-3.4467-2.1157-6.9716Q19.22,67.674,22.05,69.9577,23.1606,73.3548,24.4831,76.696ZM19.4377,60.7214q.8217,3.4307,1.8476,6.8135-2.24-1.8808-4.4067-3.8994c-.3452-.3223-.6851-.6426-1.0254-.9688q-.8664-3.4907-1.5283-7.0469Q16.7858,58.242,19.4377,60.7214Zm-5.5552-7.63q-.5793-3.5229-.9556-7.0947,2.234,2.7846,4.6744,5.4277Q18.14,54.87,18.88,58.2771,16.2859,55.7589,13.8825,53.0915Zm.1123,7.7578q-2.5788-2.5825-4.9516-5.291-.6578-3.6812-1.0972-7.3848,2.217,2.8389,4.6357,5.543Q13.1845,57.3113,13.9948,60.8493Zm.61,2.54q.8964,3.5625,2,7.0537-1.6758-1.45-3.3077-2.9717-1.05-.9786-2.0708-1.9775-.95-3.627-1.6855-7.3018Q11.9741,60.8537,14.6052,63.3894Zm-2.2515,5.0957q2.4866,2.3189,5.0791,4.4775,1.204,3.5406,2.6221,6.9941-2.9626-2.2089-5.8184-4.6191-1.26-3.5932-2.2978-7.2412C12.0759,68.2253,12.2155,68.3562,12.3537,68.4851Zm8.7529,13.957q1.533,3.5112,3.2857,6.9248-3.2015-2.0537-6.29-4.3076-1.5783-3.5347-2.9331-7.15Q18.0835,80.2761,21.1066,82.4421Zm12.335,12.2148q-3.4065-1.8061-6.7134-3.8271-1.8143-3.3663-3.41-6.84,3.1488,2.1534,6.3877,4.084Q31.4612,91.4138,33.4416,94.6569Zm-4.94-8.9394q-3.19-1.9835-6.2768-4.18-1.4736-3.4057-2.7363-6.9014,2.9266,2.3306,5.9756,4.459Q26.8755,82.444,28.5016,85.7175Zm4.0723-3.6436q-3.0447-1.8456-5.9888-3.8857-1.3769-3.2974-2.5444-6.6592,2.795,2.1563,5.6821,4.1065Q31.0449,78.8932,32.5739,82.0739Zm3.9678-3.7783q-2.8909-1.6948-5.6934-3.5732-1.2714-3.1684-2.3437-6.4,2.6557,1.9921,5.4126,3.8056Q35.1322,75.2536,36.5417,78.2956ZM31.0192,63.6267q.9339,3.1713,2.0591,6.2695-2.7071-1.8531-5.3115-3.8818-.99-3.2154-1.78-6.4717Q28.4533,61.6769,31.0192,63.6267ZM33.69,52.2927q.5757,3.044,1.3321,6.0351-2.4911-1.8984-4.8746-3.9726-.6254-3.0909-1.07-6.2305.5955.5742,1.2022,1.1406Q31.9572,50.8283,33.69,52.2927Zm-.3847-2.1592c-.7017-.6152-1.3936-1.24-2.0811-1.8818q-1.2429-1.1587-2.438-2.3575-.372-3.1-.5654-6.2382,2.042,2.2881,4.2588,4.4472Q32.8049,47.1385,33.3054,50.1335Zm-3.6123-36.06q1.4106,2.7876,3.07,5.4473-.3927,2.9911-.61,6.0156-1.8156-2.5386-3.394-5.1933Q29.1333,17.1881,29.6931,14.0739ZM28.5158,22.6q1.6369,2.6059,3.5049,5.1006-.1531,3.0117-.1309,6.0556-1.998-2.351-3.7983-4.8339Q28.2109,25.7468,28.5158,22.6Zm-.4853,8.5654q1.8522,2.439,3.8979,4.749c.0064.2393.0142.48.0225.72q.093,2.67.3208,5.31-2.1732-2.1972-4.1651-4.5234c-.0088-.2158-.0171-.4346-.0249-.65Q27.9836,33.9587,28.0305,31.1657Zm.4116,21.67q-.4037-.3676-.8037-.7412-1.9431-1.812-3.772-3.7119-.4482-3.2534-.7061-6.5254,2.0655,2.4009,4.3086,4.6748Q27.8637,49.7062,28.4421,52.8356ZM24.2853,14.9069q1.3917,2.9209,3.0435,5.74-.3648,3.1962-.54,6.4258-1.8128-2.6544-3.3969-5.4346Q23.7366,18.2649,24.2853,14.9069ZM23.176,24.01q1.6472,2.732,3.5141,5.3388-.1047,3.1583-.0263,6.3438Q24.65,33.2135,22.84,30.6062,22.9106,27.3044,23.176,24.01Zm3.5673,13.9482q.1437,3.1758.4683,6.3174-2.1959-2.3145-4.2109-4.7588-.19-3.2754-.1875-6.5566Q24.6809,35.5232,26.7433,37.9577ZM23.6911,55.6052q-2.483-2.3364-4.7861-4.8115-.5193-3.4014-.8384-6.8213,2.15,2.5912,4.4907,5.0459C22.87,51.2194,23.2492,53.4235,23.6911,55.6052Zm-1.4434-8.9463q-2.29-2.499-4.3842-5.1328-.2476-3.4263-.2954-6.8633Q19.5,37.4212,21.6457,40.05,21.85,43.3645,22.2477,46.6589Zm-3.415-30.9072q1.4341,3.16,3.1382,6.1884-.3282,3.3473-.4575,6.7-1.8758-2.8681-3.5088-5.87Q18.3123,19.2547,18.8327,15.7517Zm-1.02,9.5127q1.6977,2.9457,3.6333,5.7636-.0587,3.3267.0771,6.6494-2.09-2.6733-3.9638-5.4824C17.5759,29.8864,17.6608,27.57,17.8132,25.2644Zm-.57,23.7q-2.3841-2.69-4.5572-5.52-.2571-3.0483-.3647-6.126c-.0127-.3515-.0235-.7041-.0327-1.0556q2,2.9648,4.226,5.791Q16.778,45.5217,17.2429,48.9646ZM12.4177,26.403q1.75,3.1743,3.7553,6.209-.0124,3.482.1792,6.9629-2.1687-2.877-4.1054-5.8955Q12.2255,30.0247,12.4177,26.403Zm-5.26,1.333q1.7278,3.2418,3.7065,6.3536c.01,1.0918.0337,2.1826.0723,3.2783q.07,2.0127.2036,4.0107-2.15-2.953-4.0708-6.041Q7.0014,31.5378,7.1579,27.736ZM7.1467,38.0329q1.9848,3.0323,4.1933,5.9336.3173,3.62.84,7.19-2.3635-2.7539-4.522-5.6425Q7.2931,41.7789,7.1467,38.0329ZM4.0349,57.8064Q3.317,53.9876,2.8205,50.111q2.3445,3.1026,4.9282,6.0713c.4492,2.4766.9737,4.95,1.5684,7.4Q6.57,60.77,4.0349,57.8064Zm.5424,2.7275q2.5988,2.915,5.4087,5.6826c.6519,2.459,1.38,4.9082,2.1787,7.3311q-1.2378-1.0943-2.4526-2.2266-1.6875-1.5732-3.3076-3.1992Q5.3806,64.363,4.5773,60.5339ZM7.1706,70.819q.7917.7647,1.5972,1.5157,2.1123,1.9688,4.2871,3.8174,1.2927,3.6518,2.811,7.2382-3.1817-2.4287-6.2324-5.0732Q8.2918,74.6126,7.1706,70.819ZM10.633,80.986q3.1121,2.5957,6.3555,4.9756,1.6134,3.5874,3.457,7.0928Q17.05,90.8336,13.76,88.3825,12.0835,84.7336,10.633,80.986Zm4.3677,10.02q3.3508,2.3994,6.8056,4.5654,1.5,2.7012,3.1348,5.335Q21.36,98.8522,17.87,96.5593,16.3681,93.8157,15.0007,91.0056Z"></path>
      <path d="M51.0991,14.3584c.2869-1.2839.5945-2.5622.9406-3.8284q1.3327,1.9164,2.87,3.7255H56.165c.1994,0,.388.0021.5838.0028-.0611-.0685-.127-.1341-.1876-.2029q.5962-2.4492,1.3467-4.8555a45.2968,45.2968,0,0,0,3.0488,3.5361c-.1474.5345-.2806,1.071-.4159,1.6072q.7226.0369,1.4036.0949c.048-.1875.09-.3763.1393-.5634q.3359.3281.68.6492a20.8931,20.8931,0,0,1,2.5906.4393c-.5279-.4468-1.053-.8979-1.5642-1.3746q-.6562-.6123-1.2837-1.2451.5691-1.9834,1.251-3.9385,1.1294,1.2465,2.374,2.4082.3427.3193.6909.6289-.577,1.8076-1.0508,3.6351c.24.0657.4814.1293.71.2057l.6288.2055c.267-1.0262.54-2.05.8553-3.0658a39.3763,39.3763,0,0,0,3.3091,2.4521c-.1936.6736-.3486,1.3552-.52,2.0336a11.8033,11.8033,0,0,1,1.2444.7347c.1635-.6642.31-1.3318.4951-1.9919a39.079,39.079,0,0,0,3.4942,1.8974c-.2872,1.084-.5387,2.1751-.764,3.2709.5855.7922,1.4095,2.1619,1.4095,2.1619.0754.1448.1473.295.22.4433,1.0428.4085,2.094.7862,3.159,1.1132q-.2959,2.0171-.441,4.0684c-.3153-.09-.6277-.1937-.9417-.29.1278.5016.2485,1.0163.357,1.5549.168.0486.3343.1043.5027.1511-.04.8962-.0507,1.7971-.0475,2.7a56.2827,56.2827,0,0,1,.3907,6.44c.016.1346.0266.27.0435.4049l-.04-.01c0,.0751.0021.1462.0021.2218.2782-.014.8159.0047,1.4687.04q-.2679-1.9963-.391-4.026,1.7446.3852,3.5034.6552c.09,1.21.2314,2.42.41,3.6225.56.0456,1.0547.0876,1.4195.1192-.1827-1.1769-.3292-2.3586-.4254-3.5434.3522.0449.7064.0659,1.0592.104V35.3573c-.3841-.0427-.77-.0683-1.1529-.1193q-.1018-1.9556-.0459-3.915c.3985.0576.7993.0893,1.1988.1372v-1.394c-.38-.0469-.7609-.078-1.14-.1339q.1143-1.998.3931-3.9834c.2481.039.4981.06.7467.0944v-1.395c-.1778-.0257-.3567-.04-.5343-.0675.15-.8841.3344-1.763.5343-2.6388V16.8477c-.2819.8344-.5492,1.6728-.7848,2.5182q-1.7381-.312-3.4326-.7851.5091-1.8736,1.1538-3.6993c1.0073.2773,2.03.4991,3.0636.6823V14.1515c-.8694-.1609-1.7329-.3447-2.5826-.5756a52.07,52.07,0,0,1,2.5826-5.6543V5.0805a53.4748,53.4748,0,0,0-3.9161,8.1028,32.1223,32.1223,0,0,1-3.6494-1.4121,58.3622,58.3622,0,0,1,3.5734-7.5693H81.3184a59.7482,59.7482,0,0,0-3.2508,6.9628A32.3843,32.3843,0,0,1,74.694,9.17c.6729-1.6807,1.4265-3.3367,2.2481-4.9677H75.4056c-.67,1.3664-1.3049,2.7454-1.8737,4.1455a33.2532,33.2532,0,0,1-2.87-2.3907q-.1194-.1113-.2373-.2231c.22-.5143.4607-1.0217.6936-1.5317H69.5916c-.0721.1616-.152.32-.2228.4824-.1507-.1567-.2874-.3232-.4346-.4824H67.0721c.5475.6377,1.1126,1.2631,1.7108,1.8642Q67.98,8.0173,67.298,10.0046c-.0737-.0674-.1479-.1367-.2216-.2051a38.3512,38.3512,0,0,1-2.7837-2.8789c.34-.9116.7053-1.8169,1.0824-2.7187h-1.5c-.2039.4981-.4086.9958-.6017,1.498-.391-.4888-.7592-.9924-1.1239-1.498H60.4625c.7039,1.03,1.4451,2.0371,2.2511,3.0019Q62.0023,9.18,61.402,11.1862a43.8451,43.8451,0,0,1-2.9741-3.5927c.3828-1.14.7989-2.27,1.2335-3.3916h-1.49q-.3785.9961-.732,2.0019Q56.7677,5.22,56.155,4.2019H54.5562c.7205,1.2424,1.4911,2.4586,2.3327,3.6318q-.7933,2.436-1.4317,4.9228a48.04,48.04,0,0,1-2.9228-3.9648c.4577-1.5453.9668-3.0746,1.5122-4.59H52.5742c-.3565,1.0087-.7,2.0222-1.0184,3.0449-.6047-.9962-1.156-2.0156-1.6826-3.0449H47.019c-.0261.0789-.0531.1574-.0789.2363V9.2551q.6654-2.4494,1.4629-4.8565a49.4,49.4,0,0,0,2.6226,4.6148q-.7112,2.47-1.2749,4.9824Q48.24,11.9594,46.94,9.7986v2.5731q.88,1.3321,1.84,2.616A8.4368,8.4368,0,0,1,51.0991,14.3584Zm25.3415,7.4147q.3552-1.8311.8267-3.6406a38.6225,38.6225,0,0,0,3.7236,1.3946q-.44,1.7973-.7568,3.6289Q78.3129,22.5568,76.4406,21.7731Zm4.41,12.586q-.0674-2.001.0112-3.9776,1.7116.422,3.4448.7227-.063,1.9658.0284,3.93Q82.5842,34.7541,80.85,34.3591ZM84.37,29.71q-1.7279-.3061-3.4346-.7373.1341-2.0406.4214-4.0459,1.6941.4614,3.4151.7861Q84.49,27.7033,84.37,29.71Zm1.374-8.9991q-.4482,1.8048-.7593,3.6329-1.7175-.3267-3.4126-.794.3114-1.831.7481-3.626Q84.01,20.3923,85.7443,20.7106ZM78.8322,13.073A33.4557,33.4557,0,0,0,82.49,14.4851q-.6423,1.8266-1.1518,3.6982a37.1434,37.1434,0,0,1-3.7017-1.4023Q78.1712,14.9119,78.8322,13.073Zm-4.6514-2.5791A33.9747,33.9747,0,0,0,77.5773,12.47q-.6679,1.8443-1.2124,3.7207a37.5564,37.5564,0,0,1-3.4668-1.9189Q73.4789,12.3665,74.1808,10.4939ZM69.8576,7.1a34.3633,34.3633,0,0,0,3.15,2.58q-.7185,1.8852-1.3164,3.8047A38.0765,38.0765,0,0,1,68.424,11Q69.08,9.0353,69.8576,7.1Z"></path>
      <path id="a051c76c-4938-4c13-b87d-3b8ba2485afb" data-name="path358" class="a3dde871-3f0e-4f4d-a7aa-07fe84086f57" d="M103.6189,32.7612a65.1357,65.1357,0,0,0,7.2909.367c6.0434,0,10.838-1.5678,13.7906-4.4764,2.8586-2.8619,4.477-7.0114,4.477-12.0881,0-5.03-1.6184-8.6259-4.433-11.1609-2.7178-2.4883-6.8245-3.8759-12.5891-3.8759a50.9339,50.9339,0,0,0-8.5364.6937V32.7612Zm4.0127-27.6319a22.5478,22.5478,0,0,1,4.7066-.42c8.487,0,12.6385,4.6564,12.5944,11.9947,0,8.399-4.6151,13.1955-13.2409,13.1955a32.5538,32.5538,0,0,1-4.06-.1868Z"></path>
      <path id="a4d058e3-5849-44d1-8d8d-8a3065e8308e" data-name="path360" class="a3dde871-3f0e-4f4d-a7aa-07fe84086f57" d="M162.5332,22.4277a10.5179,10.5179,0,0,0,.1334-1.8946c0-4.1028-1.89-10.4671-9.2229-10.4671-6.507,0-10.4756,5.25-10.4756,11.9947,0,6.7311,4.1094,11.301,10.984,11.301a18.1563,18.1563,0,0,0,7.4711-1.4343l-.7379-2.9086a14.5153,14.5153,0,0,1-6.1834,1.1542c-4.1041,0-7.5651-2.2549-7.6565-7.7452h15.6878Zm-15.6406-2.9086c.3231-2.8153,2.0768-6.5511,6.2282-6.5511,4.5651,0,5.6731,4.0093,5.6258,6.5511Z"></path>
      <path id="ea9edb84-1726-42c5-9b3b-12263a20d1cd" data-name="path362" class="a3dde871-3f0e-4f4d-a7aa-07fe84086f57" d="M196.7562,10.5263h-4.0628V24.1755a5.4717,5.4717,0,0,1-.3668,2.0747,5.828,5.828,0,0,1-5.35,3.7358c-3.6424,0-4.9833-2.902-4.9833-7.1447V10.5263h-4.0561V23.575c0,7.7986,4.1962,9.78,7.7052,9.78a8.3247,8.3247,0,0,0,7.3783-4.1495h.0934l.2335,3.6425h3.5958c-.1335-1.7478-.1868-3.7824-.1868-6.1374V10.5263Z"></path>
      <path id="f3cffc57-f635-4585-b515-3bc749cd382b" data-name="path364" class="a3dde871-3f0e-4f4d-a7aa-07fe84086f57" d="M214.795,6.37v4.1561h-3.4624V13.615h3.4624V25.79c0,2.6351.46,4.6165,1.5677,5.8572a5.7958,5.7958,0,0,0,4.383,1.7078,10.9406,10.9406,0,0,0,3.5958-.5538l-.18-3.0887a7.7555,7.7555,0,0,1-2.3549.2734c-2.2616,0-3.0421-1.561-3.0421-4.3362V13.6149h5.8106V10.5261h-5.8106v-5.35L214.7951,6.37Z"></path>
      <path id="ff565635-b1ca-49d3-a295-ae4527f6d742" data-name="path366" class="a3dde871-3f0e-4f4d-a7aa-07fe84086f57" d="M237.9973,31.7872a12.746,12.746,0,0,0,6.2709,1.5678c5.2168,0,8.3056-2.7618,8.3056-6.7311,0-3.3222-2.0281-5.2636-5.8573-6.6912-2.9086-1.1542-4.2028-1.988-4.2028-3.8293,0-1.6611,1.2942-3.0421,3.6958-3.0421a8.6331,8.6331,0,0,1,4.563,1.3341l.974-2.9486a10.3523,10.3523,0,0,0-5.4436-1.3876c-4.75,0-7.7052,2.9552-7.7052,6.5511,0,2.6752,1.8879,4.85,5.9507,6.3177,2.9486,1.1141,4.1028,2.1281,4.1028,4.0627,0,1.888-1.381,3.3222-4.29,3.3222a11.526,11.526,0,0,1-5.397-1.5678l-.9673,3.0421Z"></path>
      <path id="a3ca46a8-d9a2-4d63-94d2-6b1e26d8749a" data-name="path368" class="a3dde871-3f0e-4f4d-a7aa-07fe84086f57" d="M283.3878,29.0254a11.7234,11.7234,0,0,1-4.9767,1.0607c-4.43,0-7.7518-3.1889-7.7518-8.3523,0-4.61,2.7685-8.4391,7.8853-8.4391a9.9407,9.9407,0,0,1,4.7031,1.0541l.9273-3.0888a12.7853,12.7853,0,0,0-5.63-1.1942c-7.2849,0-11.9947,5.0234-11.9947,11.8946,0,6.8312,4.383,11.3943,11.1208,11.3943a15.7243,15.7243,0,0,0,6.411-1.2875l-.6939-3.0421Z"></path>
      <path id="fe841a45-484c-4be0-8370-8c745c76dc92" data-name="path370" class="a3dde871-3f0e-4f4d-a7aa-07fe84086f57" d="M299.2118,32.8479h4.056V19.3789a5.0876,5.0876,0,0,1,.28-1.9346,5.8916,5.8916,0,0,1,5.4437-4.0161c3.8292,0,5.1635,3.0021,5.1635,6.5978V32.8479h4.0627V19.5657c0-7.6584-4.7965-9.5-7.7986-9.5a8.3487,8.3487,0,0,0-4.1494,1.1007,7.6579,7.6579,0,0,0-2.9086,2.9086h-.0934V.0992h-4.0561V32.8479Z"></path>
      <path id="eddd1e0f-ff25-4f18-b18a-7bcfee1d45a3" data-name="path372" class="a3dde871-3f0e-4f4d-a7aa-07fe84086f57" d="M353.1347,22.4277a9.8316,9.8316,0,0,0,.14-1.8946c0-4.1028-1.8946-10.4671-9.2262-10.4671-6.5044,0-10.4738,5.25-10.4738,11.9947,0,6.7311,4.11,11.301,10.9808,11.301a18.1468,18.1468,0,0,0,7.4717-1.4343l-.7339-2.9086a14.5442,14.5442,0,0,1-6.1841,1.1542c-4.1094,0-7.5651-2.2549-7.6585-7.7452h15.6839Zm-15.6372-2.9086c.32-2.8153,2.0747-6.5511,6.2308-6.5511,4.5631,0,5.6706,4.0093,5.6238,6.5511Z"></path>
      <path id="b6a2e442-4fbe-40fa-9bd7-6d104901467c" data-name="path374" class="a3dde871-3f0e-4f4d-a7aa-07fe84086f57" d="M368.6785,32.8479h4.0628V20.9466a11.14,11.14,0,0,1,.14-1.888c.547-3.0487,2.5817-5.1635,5.437-5.1635a6.7133,6.7133,0,0,1,1.3876.0867V10.1525a8.6831,8.6831,0,0,0-1.1075-.0867,6.759,6.759,0,0,0-6.2308,4.8832h-.1335l-.1868-4.4229h-3.549c.1334,2.0681.18,4.3362.18,6.9647V32.8479Z"></path>
      <path id="a0450187-2b7a-4926-9450-267260268b09" data-name="path382" class="a3dde871-3f0e-4f4d-a7aa-07fe84086f57" d="M53.3478,83.5955h4.06V69.5261H69.1237V66.2039H57.4078V55.87H70.0937V52.508H53.3478V83.5955Z"></path>
      <path id="bf2eb114-eb07-4738-aad3-fbe5db58039f" data-name="path390" class="a3dde871-3f0e-4f4d-a7aa-07fe84086f57" d="M97.2446,73.1752a10.0031,10.0031,0,0,0,.1407-1.8945c0-4.1028-1.892-10.4738-9.2276-10.4738-6.5043,0-10.473,5.2636-10.473,11.9947,0,6.7379,4.1068,11.3076,10.9807,11.3076A18.1827,18.1827,0,0,0,96.14,82.6749l-.74-2.9085a14.4974,14.4974,0,0,1-6.1809,1.1541c-4.1047,0-7.565-2.2549-7.6591-7.7451H97.2446ZM81.6088,70.2666c.3235-2.8152,2.0747-6.5511,6.2255-6.5511,4.5684,0,5.6731,4.0161,5.6265,6.5511Z"></path>
      <path id="a00bf3ca-9660-483f-bbb1-7b475b2b66aa" data-name="path402" class="a3dde871-3f0e-4f4d-a7aa-07fe84086f57" d="M165.0149,57.1176V61.267h-3.459v3.0888h3.459V76.5373c0,2.6285.467,4.61,1.5677,5.8572a5.8063,5.8063,0,0,0,4.383,1.7078,10.9854,10.9854,0,0,0,3.6024-.5538l-.1868-3.0888a7.7512,7.7512,0,0,1-2.3549.2735c-2.2615,0-3.0421-1.5678-3.0421-4.3362V64.3556h5.8106V61.2669h-5.8106V55.9232l-3.9693,1.1942Z"></path>
      <path id="a3e5a084-5d7e-4255-abf1-e081cdef9702" data-name="path416" class="a3dde871-3f0e-4f4d-a7aa-07fe84086f57" d="M257.6905,83.502a46.4925,46.4925,0,0,0,6.2242.367c5.0767,0,8.5791-.9206,10.7072-2.902a8.1915,8.1915,0,0,0,2.6751-6.2308,7.9145,7.9145,0,0,0-6.4177-7.7451v-.14a7.3469,7.3469,0,0,0,5.2635-6.8312,6.546,6.546,0,0,0-2.6284-5.4836c-1.8946-1.5678-4.4763-2.2615-8.4924-2.2615a35.4,35.4,0,0,0-7.3316.6937V83.5022ZM261.7,55.6433a17.0359,17.0359,0,0,1,3.5558-.28c4.056,0,6.7778,1.4809,6.7778,5.0768,0,2.9953-2.4883,5.2636-6.6844,5.2636H261.7Zm0,13.0554h3.3222c4.383,0,8.0254,1.7946,8.0254,5.9973,0,4.5164-3.8226,6.044-7.9786,6.044a22.7986,22.7986,0,0,1-3.369-.1868Z"></path>
      <path id="af327b5d-249e-4488-a3bb-21b24940dcd6" data-name="path392" class="a3dde871-3f0e-4f4d-a7aa-07fe84086f57" d="M124.5543,79.7662a11.61,11.61,0,0,1-4.982,1.0673c-4.4276,0-7.7479-3.1889-7.7479-8.3523,0-4.61,2.7653-8.4457,7.8887-8.4457a9.9256,9.9256,0,0,1,4.7005,1.0607l.9226-3.0888a12.7433,12.7433,0,0,0-5.6231-1.2008c-7.2915,0-11.9981,5.03-11.9981,11.9014,0,6.8246,4.383,11.3943,11.12,11.3943a15.699,15.699,0,0,0,6.41-1.2876l-.6905-3.0487Z"></path>
      <path id="f8d11243-1a19-478a-9186-940d96682d6d" data-name="path394" class="a3dde871-3f0e-4f4d-a7aa-07fe84086f57" d="M136.9173,83.5955h4.06V70.1265a5.2018,5.2018,0,0,1,.2763-1.9414,5.897,5.897,0,0,1,5.4437-4.0093c3.8306,0,5.1675,2.9953,5.1675,6.5978V83.5955h4.06V70.3133c0-7.6585-4.8006-9.5064-7.7972-9.5064a8.3618,8.3618,0,0,0-4.1508,1.1074,7.655,7.655,0,0,0-2.906,2.9086h-.0934V50.8468h-4.06V83.5955Z"></path>
      <path id="ab328a79-7696-42d2-a6b9-049b6f3a69a5" data-name="path404" class="a3dde871-3f0e-4f4d-a7aa-07fe84086f57" d="M204.2279,73.1752a9.83,9.83,0,0,0,.14-1.8945c0-4.1028-1.8946-10.4738-9.2262-10.4738-6.5044,0-10.4738,5.2636-10.4738,11.9947,0,6.7379,4.1094,11.3076,10.9808,11.3076a18.1458,18.1458,0,0,0,7.4716-1.4343l-.74-2.9085a14.5008,14.5008,0,0,1-6.1842,1.1541c-4.1028,0-7.5584-2.2549-7.6518-7.7451h15.6839Zm-15.6372-2.9086c.32-2.8152,2.0747-6.5511,6.2241-6.5511,4.57,0,5.6771,4.0161,5.6305,6.5511Z"></path>
      <path id="ac7eb371-19f4-4fb0-8366-37c824da561c" data-name="path406" class="a3dde871-3f0e-4f4d-a7aa-07fe84086f57" d="M216.3093,83.5955h4.0628V71.6941a11.7361,11.7361,0,0,1,.14-1.8879c.5471-3.0487,2.5818-5.17,5.4437-5.17a6.2314,6.2314,0,0,1,1.3809.0935V60.9a8.5488,8.5488,0,0,0-1.1074-.0934,6.7656,6.7656,0,0,0-6.2309,4.89h-.1334l-.1868-4.43h-3.5491c.1335,2.0748.18,4.3363.18,6.9714V83.5955Z"></path>
      <path id="afd0742b-1241-4c5f-a7be-8009b3f5078a" data-name="path414" class="a3dde871-3f0e-4f4d-a7aa-07fe84086f57" d="M234.4883,69.666v2.9578h11.393V69.666Z"></path>
      <path id="ab742b1c-89f2-46b8-b8df-09302a486e57" data-name="path418" class="a3dde871-3f0e-4f4d-a7aa-07fe84086f57" d="M308.1578,61.267H304.095V74.9228a5.6056,5.6056,0,0,1-.3668,2.0748,5.8352,5.8352,0,0,1-5.35,3.7358c-3.6491,0-4.9833-2.902-4.9833-7.1515V61.2669h-4.0628V74.3223c0,7.7985,4.2028,9.78,7.7052,9.78a8.3371,8.3371,0,0,0,7.385-4.1495h.0867l.2335,3.6426h3.5958c-.1335-1.7478-.18-3.7825-.18-6.1309V61.2667Z"></path>
      <path id="a1b32784-e582-45a3-9786-5f7c09b21a56" data-name="path420" class="a3dde871-3f0e-4f4d-a7aa-07fe84086f57" d="M321.807,83.5955H325.87V70.1731a5.932,5.932,0,0,1,.2735-1.8879,5.855,5.855,0,0,1,5.4437-4.1561c3.8292,0,5.17,3.0021,5.17,6.5978V83.5955h4.0561V70.3133c0-7.6585-4.7966-9.5064-7.8853-9.5064A8.2548,8.2548,0,0,0,325.55,64.963h-.0934l-.2335-3.6958h-3.5958c.1334,1.8479.18,3.6958.18,6.044V83.5955Z"></path>
      <path id="be62436e-9a59-4d0b-9a72-03b4b63cdfd9" data-name="path422" class="a3dde871-3f0e-4f4d-a7aa-07fe84086f57" d="M369.5524,50.8468v13.329h-.0934c-1.014-1.7546-3.2756-3.3689-6.7312-3.3689-5.3969,0-10.0534,4.5231-10.0134,11.9481,0,6.7779,4.2029,11.3476,9.6,11.3476a8.0473,8.0473,0,0,0,7.5117-4.3763h.1467l.18,3.8694h3.6024c-.0934-1.521-.1868-3.7759-.1868-5.7639V50.8469h-4.016Zm0,23.3891a7.2345,7.2345,0,0,1-.18,1.7546,6.1555,6.1555,0,0,1-5.9507,4.8432c-4.3362,0-6.5977-3.7425-6.5977-8.2589,0-4.89,2.4883-8.5858,6.6844-8.5858a5.9866,5.9866,0,0,1,5.8639,4.6632,7.4279,7.4279,0,0,1,.18,1.7077v3.876Z"></path>
    </g>
  </g>
</svg>
